<?xml version="1.0" encoding="utf-8"?>
<!-- Generator: Adobe Illustrator 21.0.0, SVG Export Plug-In . SVG Version: 6.00 Build 0)  -->
<svg version="1.1" id="Шар_1" xmlns="http://www.w3.org/2000/svg" xmlns:xlink="http://www.w3.org/1999/xlink" x="0px" y="0px"
	 viewBox="0 0 526 152" style="enable-background:new 0 0 526 152;" xml:space="preserve">
<style type="text/css">
	.st0{display:none;}
	.st1{display:inline;fill:#FFFFFF;stroke:#000000;stroke-width:0.25;stroke-miterlimit:10;}
</style>
<g class="st0">
	<path class="st1" d="M46,84c0.2,0.4,0.7,1,1.3,1.8c0.6,0.8,1.5,1.7,2.5,2.5c1,0.8,2.2,1.6,3.6,2.2s2.9,1,4.6,1c2.3,0,4-0.6,5.2-1.7
		c1.2-1.1,1.7-2.5,1.7-4.1c0-1.6-0.6-2.9-1.7-3.9c-1.1-1-2.6-2-4.3-2.8c-1.7-0.8-3.6-1.6-5.5-2.4c-2-0.8-3.8-1.8-5.5-3
		c-1.7-1.2-3.2-2.6-4.3-4.4c-1.1-1.8-1.7-4-1.7-6.7c0-1.9,0.4-3.7,1.1-5.4c0.7-1.7,1.7-3.2,3-4.4c1.3-1.2,2.7-2.2,4.4-3
		c1.7-0.7,3.5-1.1,5.4-1.1c0.4,0,0.7,0,1.1,0c0.3,0,0.7,0.1,1.1,0.1v8.8c-0.7-0.3-1.4-0.4-2.2-0.4c-1.5,0-2.8,0.5-3.9,1.6
		c-1.1,1.1-1.6,2.4-1.6,3.9c0,1.3,0.6,2.5,1.7,3.4c1.2,0.9,2.6,1.8,4.3,2.6c1.7,0.8,3.6,1.7,5.5,2.6c2,0.9,3.8,2,5.5,3.3
		c1.7,1.3,3.1,2.9,4.3,4.7c1.2,1.8,1.7,4.1,1.7,6.9c0,2-0.4,3.8-1.2,5.5c-0.8,1.7-1.9,3.2-3.2,4.4c-1.3,1.3-2.9,2.3-4.7,3
		c-1.8,0.7-3.7,1.1-5.7,1.1c-1.7,0-3.4-0.2-5.1-0.6c-1.7-0.4-3.3-1-4.9-1.8c-1.6-0.8-3.1-1.8-4.5-3c-1.4-1.2-2.6-2.6-3.6-4.1L46,84z
		"/>
	<path class="st1" d="M108,87H89v13h-9V49h9v12h19V49h9v51h-9V87z"/>
	<path class="st1" d="M127,49h23v8h-15v12h14v8h-14v14h22.6l2.1,8H127V49z"/>
	<path class="st1" d="M167,49h23v8h-14v12h14v8h-14v14h22.6l2.1,8H167V49z"/>
	<path class="st1" d="M207,49h10.3c3.1,0,5.8,0.4,8.1,1.3c2.3,0.9,4.2,2,5.8,3.5c1.5,1.4,2.7,3.1,3.4,4.9c0.8,1.8,1.2,3.7,1.2,5.6
		c0,2-0.4,4-1.2,5.9c-0.8,2-2.1,3.7-3.7,5.2c-1.6,1.5-3.7,2.8-6.2,3.7c-2.5,0.9-5.4,1.4-8.7,1.4V99h-9V49z M216,57v16h0.5
		c1.8,0,3.4-0.2,4.7-0.7c1.3-0.4,2.4-1,3.2-1.8c0.8-0.7,1.4-1.6,1.8-2.6c0.4-1,0.6-2,0.6-3c0-1.1-0.2-2.1-0.6-3.1
		c-0.4-1-1-1.8-1.9-2.5c-0.9-0.7-2-1.3-3.3-1.7c-1.4-0.4-3-0.6-4.8-0.6H216z"/>
	<path class="st1" d="M274,77.2V99h-9V49h1.5l21.9,34.2L310.3,49h1.5l18.3,50h-9l-12.5-30.7l-20.2,31.3L274,77.2z"/>
	<path class="st1" d="M351,100c-2,0-4.2-0.4-6.4-1.2c-2.2-0.8-4.3-2-6.2-3.6c-1.9-1.6-3.4-3.6-4.6-5.9c-1.2-2.4-1.8-5.1-1.8-8.3V49
		h9v32.5c0,1.8,0.3,3.3,1,4.5c0.7,1.2,1.5,2.3,2.5,3.1c1,0.8,2.1,1.4,3.3,1.8c1.2,0.4,2.3,0.6,3.2,0.6c1,0,2.1-0.2,3.2-0.6
		c1.2-0.4,2.3-1,3.3-1.8c1-0.8,1.8-1.8,2.5-3.1c0.7-1.2,1-2.8,1-4.5V49h9v32c0,3.2-0.6,5.9-1.8,8.3c-1.2,2.4-2.7,4.4-4.6,5.9
		c-1.9,1.6-3.9,2.8-6.2,3.6S353,100,351,100z"/>
	<path class="st1" d="M394,78.8c-1-0.3-1.8-0.7-2.6-1c-1.3-0.5-2.6-1.1-3.9-1.7c-1.3-0.6-2.6-1.3-3.8-2.1c-1.2-0.8-2.3-1.7-3.2-2.8
		c-0.9-1.1-1.6-2.3-2.2-3.7c-0.6-1.4-0.8-3-0.8-4.8c0-1.9,0.4-3.7,1.1-5.4c0.7-1.7,1.7-3.2,3-4.4c1.3-1.2,2.7-2.2,4.4-3
		c1.7-0.7,3.5-1.1,5.4-1.1c0.4,0,0.7,0,1.1,0c0.3,0,0.7,0.1,0.5,0.1v8.8c-0.1-0.3-0.8-0.4-1.6-0.4c-1.5,0-2.8,0.5-3.9,1.6
		c-1.1,1.1-1.6,2.4-1.6,3.9c0,1.3,0.6,2.5,1.7,3.4c1.2,0.9,2.6,1.8,4.3,2.6c1.7,0.8,3.6,1.7,5.5,2.6c2,0.9,3.8,2,5.5,3.3
		c1.7,1.3,3.1,2.9,4.3,4.7c1.2,1.8,1.7,4.1,1.7,6.9c0,2-0.4,3.8-1.2,5.5c-0.8,1.7-1.9,3.2-3.2,4.4c-1.3,1.3-2.9,2.3-4.7,3
		c-1.8,0.7-3.7,1.1-5.7,0.9H394V78.8z"/>
	<path class="st1" d="M416,99V49h17v50H416z"/>
	<path class="st1" d="M467,100.2c-3.6,0-7-0.7-10.1-2c-3.1-1.3-5.9-3.2-8.2-5.5c-2.3-2.3-4.2-5-5.5-8.1c-1.4-3.1-2-6.5-2-10.1
		s0.7-7,2-10.1c1.4-3.1,3.2-5.8,5.5-8.2c2.3-2.3,5.1-4.2,8.2-5.5c3.1-1.3,6.5-2,10.1-2c3.9,0,7.5,0.8,10.8,2.3
		c3.3,1.5,6.1,3.6,8.5,6.2l-6.3,6c-1.6-1.8-3.5-3.3-5.7-4.3c-2.2-1.1-4.6-1.6-7.2-1.6c-2.4,0-4.6,0.5-6.7,1.4
		c-2.1,0.9-3.9,2.1-5.4,3.7c-1.5,1.5-2.8,3.4-3.7,5.5c-0.9,2.1-1.4,4.3-1.4,6.7c0,2.4,0.5,4.6,1.4,6.7c0.9,2.1,2.1,3.9,3.7,5.4
		c1.5,1.5,3.3,2.8,5.4,3.7c2.1,0.9,4.3,1.4,6.7,1.4V100.2z"/>
</g>
<g>
	<path d="M61.7,76.8c-0.8-0.3-1.6-0.7-2.4-1c-1.3-0.5-2.6-1.1-3.9-1.7c-1.3-0.6-2.6-1.3-3.8-2.1c-1.2-0.8-2.3-1.7-3.2-2.8
		c-0.9-1.1-1.6-2.3-2.2-3.7c-0.6-1.4-0.8-3-0.8-4.8c0-1.9,0.4-3.7,1.1-5.4c0.7-1.7,1.7-3.2,3-4.4c1.3-1.2,2.7-2.2,4.4-3
		c1.7-0.7,3.5-1.1,5.4-1.1c0.4,0,0.7,0,1.1,0c0.3,0,0.7,0.1,1.1,0.1v8.8c-0.7-0.3-1.4-0.4-2.2-0.4c-1.5,0-2.8,0.5-3.9,1.6
		c-1.1,1.1-1.6,2.4-1.6,3.9c0,1.3,0.6,2.5,1.7,3.4c1.2,0.9,2.6,1.8,4.3,2.6c1.7,0.8,3.6,1.7,5.5,2.6c2,0.9,3.8,2,5.5,3.3
		c1.7,1.3,3.1,2.9,4.3,4.7c1.2,1.8,1.7,4.1,1.7,6.9c0,2-0.4,3.8-1.2,5.5c-0.8,1.7-1.9,3.2-3.2,4.4c-1.3,1.3-2.9,2.3-4.7,3
		c-1.8,0.7-3.7,1.1-5.7,1.1h-0.6L61.7,76.8z"/>
	<path d="M111.8,84.5h-19v13h-8.6V47.2h8.6v12.2h19V47.2h8.6v50.4h-8.6V84.5z"/>
	<path d="M130.5,47.2h23v8.1h-14.4v12h13.6v8.3h-13.6v13.8h23.5l2.2,8.4h-34.3V47.2z"/>
	<path d="M170.6,47.2h23v8.1h-14.4v12h13.6v8.3h-13.6v13.8h23.5l2.2,8.4h-34.3V47.2z"/>
	<path d="M210.7,47.2h9.9c3,0,5.6,0.4,7.8,1.3c2.2,0.9,4.1,2.1,5.5,3.5c1.5,1.4,2.6,3.1,3.3,4.9c0.7,1.8,1.1,3.7,1.1,5.7
		c0,2-0.4,4-1.2,6c-0.8,2-2,3.7-3.6,5.3c-1.6,1.6-3.6,2.8-5.9,3.7s-5.1,1.4-8.3,1.4v18.6h-8.6V47.2z M219.3,55.1v15.6h0.5
		c1.8,0,3.3-0.2,4.6-0.6c1.3-0.4,2.3-1,3.1-1.7c0.8-0.7,1.4-1.6,1.8-2.5c0.4-1,0.6-1.9,0.6-3c0-1.1-0.2-2.1-0.6-3
		c-0.4-0.9-1-1.8-1.8-2.5c-0.8-0.7-1.9-1.3-3.2-1.7c-1.3-0.4-2.9-0.6-4.7-0.6H219.3z"/>
	<path d="M277.2,75.6v22h-8.6V47.2h1.4l21,34.5l21-34.5h1.4l17.6,50.4h-8.6l-12-31L291,98.2L277.2,75.6z"/>
	<path d="M355,98.2c-2,0-4.1-0.4-6.4-1.2c-2.2-0.8-4.3-2-6.1-3.6c-1.8-1.6-3.4-3.6-4.6-5.9c-1.2-2.4-1.8-5.1-1.8-8.3v-32h8.6v32.5
		c0,1.8,0.3,3.3,1,4.5c0.7,1.2,1.5,2.3,2.6,3.1c1,0.8,2.1,1.4,3.3,1.8c1.2,0.4,2.3,0.6,3.3,0.6c1,0,2.1-0.2,3.3-0.6
		c1.2-0.4,2.3-1,3.3-1.8c1-0.8,1.9-1.8,2.6-3.1c0.7-1.2,1-2.8,1-4.5V47.2h8.6v32c0,3.2-0.6,5.9-1.8,8.3c-1.2,2.4-2.7,4.4-4.6,5.9
		c-1.8,1.6-3.9,2.8-6.1,3.6S357,98.2,355,98.2z"/>
	<path d="M397.3,76.8c-0.8-0.3-1.6-0.7-2.4-1c-1.3-0.5-2.6-1.1-3.9-1.7c-1.3-0.6-2.6-1.3-3.8-2.1c-1.2-0.8-2.3-1.7-3.2-2.8
		c-0.9-1.1-1.6-2.3-2.2-3.7c-0.6-1.4-0.8-3-0.8-4.8c0-1.9,0.4-3.7,1.1-5.4c0.7-1.7,1.7-3.2,3-4.4c1.3-1.2,2.7-2.2,4.4-3
		c1.7-0.7,3.5-1.1,5.4-1.1c0.4,0,0.7,0,1.1,0c0.3,0,0.7,0.1,1.1,0.1v8.8c-0.7-0.3-1.4-0.4-2.2-0.4c-1.5,0-2.8,0.5-3.9,1.6
		c-1.1,1.1-1.6,2.4-1.6,3.9c0,1.3,0.6,2.5,1.7,3.4c1.2,0.9,2.6,1.8,4.3,2.6c1.7,0.8,3.6,1.7,5.5,2.6c2,0.9,3.8,2,5.5,3.3
		c1.7,1.3,3.1,2.9,4.3,4.7c1.2,1.8,1.7,4.1,1.7,6.9c0,2-0.4,3.8-1.2,5.5c-0.8,1.7-1.9,3.2-3.2,4.4c-1.3,1.3-2.9,2.3-4.7,3
		c-1.8,0.7-3.7,1.1-5.7,1.1h-0.6L397.3,76.8z"/>
	<path d="M419.8,97.6V47.2h17.3v50.4H419.8z"/>
	<path d="M470.8,98.2c-3.6,0-7-0.7-10.1-2c-3.1-1.3-5.9-3.2-8.2-5.5c-2.3-2.3-4.2-5-5.5-8.1c-1.4-3.1-2-6.5-2-10.1s0.7-7,2-10.1
		c1.4-3.1,3.2-5.8,5.5-8.2c2.3-2.3,5.1-4.2,8.2-5.5c3.1-1.3,6.5-2,10.1-2c3.9,0,7.5,0.8,10.8,2.3c3.3,1.5,6.1,3.6,8.5,6.2l-6.3,6
		c-1.6-1.8-3.5-3.3-5.7-4.3c-2.2-1.1-4.6-1.6-7.2-1.6c-2.4,0-4.6,0.5-6.7,1.4c-2.1,0.9-3.9,2.1-5.4,3.7c-1.5,1.5-2.8,3.4-3.7,5.5
		c-0.9,2.1-1.4,4.3-1.4,6.7c0,2.4,0.5,4.6,1.4,6.7c0.9,2.1,2.1,3.9,3.7,5.4c1.5,1.5,3.3,2.8,5.4,3.7c2.1,0.9,4.3,1.4,6.7,1.4V98.2z"
		/>
</g>
</svg>
